<svg version="1.1"
    xmlns="http://www.w3.org/2000/svg" width="500" height="500" viewBox="0 0 639.63 628.977">
    <title>stu_logo</title>
    <g isolation="isolate">
        <g isolation="isolate">
            <path d="M26.959,267.052c-4.31,4.775-6.769,12.572-7.178,19.172,.01,2.596,3.363,2.476,3.679,.203,.505-9.954,5.443-20.032,15.069-20.067,14.604-.053,18.209,9.777,18.263,24.38,.039,10.817-2.096,18.504-4.13,24.57-7.782,1.65-16.004,1.248-21.311-.355,2.905-4.338,4.501-11.482,4.806-17.108,.315-2.489-3.688-2.799-3.679-.203-.288,10.169-3.277,20.672-14.095,20.711C4.539,318.406,.052,304.252,0,290.082c-.033-9.086,1.774-17.747,4.028-22.623,7.454-2.624,14.268-2.865,22.931-.408Z" fill="#b39bc8"/>
        </g>
        <g isolation="isolate">
            <path d="M27.986,319.244c20.188-3.858,30.242,6.113,32.353,17.163,.569,2.976,.651,5.712,.142,8.232-3.507,15.647-13.274,14.101-10.994,17.959,.628,.981,1.327,1.179,2.009,.718,4.649-2.761,7.93-6.912,10.073-11.836,1.772,3.516,3.014,7.133,3.725,10.852,.731,3.824,.931,7.75,.6,11.778l-47.067,8.995c-4.539-.124-7.556-2.08-8.429-6.648-2.045-8.971-4.716-16.609,6.181-20.674,.829-.269,1.198-1.22,.738-1.903-1.297-2.175-6.765,2.064-8.089,3.198-2.249-2.545-3.728-5.675-4.417-9.288-2.132-11.155,4.478-24.973,23.177-28.546Zm.088,29.275c1.279,6.693,13.579,4.784,12.117-2.865-1.238-6.481-13.321-5.163-12.117,2.865Z" fill="#b39bc8"/>
        </g>
        <g isolation="isolate">
            <path d="M62.473,368.174c2.008-.229,5.608,5.781,8.084,11.898,2.435,6.016,4.131,12.798,2.672,14.672l-22.74,13.875c-.761,.424-.96,1.088-.635,1.89,.284,.702,1.109,1.302,2.492,.392,15.667-9.727,14.407-8.517,22.628-11.846,2.595,.934,5.933,6.585,8.49,12.901,2.558,6.316,4.091,12.697,2.876,15.173-13.259,4.436-43.064,10.083-55.028,2.439-3.785-2.435-3.649-3.54-9.535-18.078-5.886-14.539,25.002-35.096,40.695-43.316Z" fill="#b39bc8"/>
        </g>
        <g isolation="isolate">
            <path d="M91.469,432.827c4.105,2.652,7.585,6.34,10.126,10.365,6.872,10.884,6.865,24.448-6.258,28.384-8.688,3.056-18.107-.72-21.977-6.849-1.79-2.835-2.493-5.973-1.178-9.361,.101-.447,.111-.838-.062-1.113-.404-.64-1.001-.774-1.882-.346-2.104,1.328-3.039,7.547,.368,12.943,1.559,2.469,4.023,4.752,7.644,6.432,5.486,3.828-4.273,18.561-9.645,14.916-4.447-2.182-10.583-7.646-14.973-14.598-3.061-4.848-5.148-10.182-5.162-15.673,.1-20.915,27.197-35.337,42.998-25.101Zm-5.697,17.924c.462,.732,1.198,1.291,2.151,1.585,3.009,.915,4.231-2.416,2.788-4.702-.462-.732-1.141-1.199-2.094-1.492-2.95-.824-4.231,2.415-2.846,4.609Z" fill="#b39bc8"/>
        </g>
        <g isolation="isolate">
            <path d="M133.598,485.117l1.596,1.459,11.026-12.051c4.66,1.479,8.422,3.455,11.215,6.012,3.033,2.773,5.335,6.346,6.901,10.564l-10.953,11.971,5.267,4.82c-2.779,6.402-7.539,11.283-14.02,15.322l-4.948-4.527-7.521,8.219c-6.096-2.791-5.899-5.25-7.797-3.176-.804,.879-.85,1.57-.138,2.074,3.665,3.205,7.959,5.082,12.511,5.875,.89,6.24-.833,12.287-5.239,18.227-7.862-1.184-14.09-3.51-19.917-8.84-15.003-13.729,.725-28.514,7.296-35.695l2.953,2.701c1.297,1.627,3.794-.781,2.278-2.17l-5.267-4.818c3.369-6.887,7.875-12.293,14.756-15.967Z" fill="#b39bc8"/>
        </g>
        <g isolation="isolate">
            <path d="M181.566,501.439c3.904,2.528,7.066,5.606,9.934,9.138l-8.76,13.529c-11.262,1.471-20.174,8.07-24.237,18.326-.321,.695,.047,1.319,.502,1.613,.726,.471,1.896,.455,2.153-.539,3.105-7.781,8.834-12.449,16.394-14.771,6.09-2.242,12.345-1.155,17.43,2.137,7.99,5.173,12.267,15.286,6.093,24.82l-20.811,32.144c-1.667,.981-7.857-1.996-13.396-5.582-5.266-3.409-10.153-7.604-9.938-9.527l12.169-18.796c.764-1.181,.299-2.253-.427-2.724-.817-.529-1.987-.515-2.693,.576l-12.228,18.886c-1.758,.924-7.404-1.701-12.579-5.052-5.811-3.763-10.879-8.075-10.393-9.821l38.565-59.564c4.546,1.14,8.589,2.855,12.221,5.207Z" fill="#b39bc8"/>
        </g>
        <g isolation="isolate">
            <path d="M217.727,548.345c4.884-.184,9.85,.838,14.241,2.675,11.875,4.967,19.657,16.076,11.172,26.832-5.36,7.49-15.24,9.807-21.926,7.01-3.093-1.294-5.471-3.46-6.339-6.989-.174-.425-.39-.75-.689-.875-.698-.292-1.265-.06-1.741,.797-.96,2.296,1.845,7.924,7.733,10.387,2.694,1.127,6.022,1.581,9.951,.878,6.689-.016,7.156,17.65,.666,17.75-4.893,.768-13.055-.185-20.639-3.356-5.289-2.212-10.061-5.38-13.225-9.869-11.926-17.183,1.982-44.548,20.796-45.238Zm5.625,17.948c.798,.334,1.722,.368,2.671,.062,2.988-.978,2.077-4.407-.417-5.45-.799-.334-1.622-.327-2.571-.02-2.889,1.019-2.078,4.406,.317,5.408Z" fill="#b39bc8"/>
        </g>
        <g isolation="isolate">
            <path d="M279.199,570.248c2.719-1.989,7.556-2.441,12.395-1.915,5.915,.644,11.27,2.422,12.769,4.653l-3.019,27.743c-10.476,.274-13.316,1.38-12.931,2.837,.156,.562,.563,.823,1.101,.881,1.936,.211,6.603-1.674,15.098-.75,2.15,.234,4.601,.718,7.254,1.333,.956,.213,1.625,.068,2.029-.649,.605-1.566-2.777-2.479-8.214-3.506l2.984-27.421c.879-2.081,6.373-2.57,12.072-1.95,5.807,.633,11.688,2.578,12.338,4.607l-4.084,37.529c-.106,5.972,.94,14.355-5.771,15.04-2.985,.437-5.04,.321-7.083,.099-12.904-1.404-6.827-13.256-11.065-12.302-2.459,.602-.356,6.272,.448,7.883-3.893,.773-8.396,1.153-13.019,.65-3.549-.387-6.405-1.132-8.666-2.357-12.665-6.602-8.472-17.134-4.633-52.405Z" fill="#b39bc8"/>
        </g>
        <g isolation="isolate">
            <path d="M340.765,572.222c3.342-.27,7.086,.404,11.224,1.915l.244,3.019c-3.58,5.39-5.159,11.377-4.312,17.82,.069,.863,.644,1.25,1.821,1.047,1.177-.204,1.682-.679,1.504-1.533-1.445-11.169,6.37-21.893,12.205-23.558,1.807-.473,3.299-.809,4.7-.922,11.752-.95,21.744,8.553,22.693,20.305l2.525,31.267c-4.13,2.613-9.127,3.885-13.871,4.269-5.715,.461-10.887-.423-13.946-2.021l-1.027-12.722c-.104-1.294-1.011-1.763-1.98-1.685-.863,.069-1.789,.688-1.685,1.981,1.114,13.801,1.7,12.992-1.115,14.414-2.6,1.403-7.524,2.235-12.268,2.619-6.47,.522-12.486-.077-12.976-2.1l-4.076-50.458c3.409-2.12,6.89-3.379,10.34-3.657Z" fill="#b39bc8"/>
        </g>
        <g isolation="isolate">
            <path d="M402.428,569.473c-5.799,1.329-12.272-1.735-14.038-9.433-1.644-7.169,2.856-13.195,8.55-14.501,2.741-.629,5.854-.121,8.729,1.771,5.104,3.38,6.797,9.316,5.201,14.455-1.579,4.245-4.857,6.885-8.442,7.707Zm.308,5.7c6.221-1.427,12.65-1.458,13.303,1.389l8.559,37.323c.46,2.003-5.778,4.32-12.104,5.771-6.326,1.45-12.001,1.864-13.15,.241l-8.68-37.851c.263-2.723,6.063-5.496,12.073-6.874Z" fill="#b39bc8"/>
        </g>
        <g isolation="isolate">
            <path d="M420.326,567.101c4.611-9.664,17.228-14.221,27.484-17.67,14.506-5.37,21.125,22.169,10.519,27.479-6.635,3.264-13.338,4.477-19.284,.564-.315-.229-.695-.319-1-.207-.811,.301-1.322,1.412-.274,2.062,5.087,3.77,11.897,3.785,18.39,1.383,3.146-1.165,6.001-2.799,8.364-4.827,5.563,1.632,13.21,19.794,8.633,24.256-.188-.507-22.798,11.324-37.359,5.641-12.626-5.13-21.094-26.448-15.472-38.681Z" fill="#b39bc8"/>
        </g>
        <g isolation="isolate">
            <path d="M470.772,537.063c2.469-2.429,4.873-4.32,7.4-5.784,25.652-14.848,51.594,20.254,38.033,42.602-2.246,3.676-5.277,6.43-8.74,8.435-6.367,3.685-13.768,4.72-20.926,3.363-20.043-4.396-30.9-33.732-15.768-48.615Zm19.416,17.132c1.404-.812,2.922-5.316,1.404-7.937-1.68-2.902-4.881-4.548-8.158-2.651-5.711,3.306-.43,14.372,6.754,10.588Z" fill="#b39bc8"/>
        </g>
        <g isolation="isolate">
            <path d="M508.346,513.662c4.033-3.27,8.559-6.104,10.637-6.115-.293,4.275,.631,8.678,2.949,12.229,.666,.992,1.68,.867,2.352,.322,.588-.477,.736-1.153,.428-1.878-4.23-8.825-3.006-15.388,4.055-21.108,7.1,3.434,14.756,11.85,17.096,21.092-2.311,.758-7.705,2.347-9.723,3.981-1.176,.954-1.34,1.782-.643,2.47l18.117,22.354c.281,1.721-3.932,5.971-8.639,9.785-4.957,4.02-10.459,7.365-11.697,6.697l-33.033-40.756c-.33-1.265,3.395-5.258,8.102-9.072Z" fill="#b39bc8"/>
        </g>
        <g isolation="isolate">
            <path d="M534.528,491.513c2.224-2.51,5.392-4.617,9.422-6.393l2.267,2.008c1.151,6.367,4.16,11.779,9.232,15.84,.648,.574,1.332,.457,2.039-.506,.707-.962,.742-1.654,.023-2.146-8.778-7.057-10.568-20.204-7.514-25.445,.977-1.593,1.818-2.869,2.752-3.922,7.818-8.824,21.607-8.891,30.432-1.072l23.479,20.804c-1.168,4.745-3.893,9.124-7.049,12.687-3.803,4.291-8.146,7.234-11.459,8.201l-9.553-8.465c-.971-.861-1.95-.571-2.596,.157-.574,.647-.814,1.735,.156,2.596,10.363,9.183,10.227,8.194,9.181,11.169-.903,2.812-3.879,6.824-7.035,10.387-4.304,4.857-9.06,8.594-10.813,7.473l-37.889-33.572c.99-3.891,2.629-7.208,4.925-9.799Z" fill="#b39bc8"/>
            <path d="M593.655,469.474c6.394-.692,13.421-4.871,18.121-9.523,1.722-1.942-.86-4.086-2.608-2.601-7.005,7.089-17.4,11.319-24.606,4.935-10.931-9.685-7.073-19.419,2.611-30.349,7.173-8.097,13.886-12.41,19.441-15.581,6.905,3.951,12.771,9.727,15.662,14.457-5.056,1.301-11.004,5.568-14.978,9.562-1.893,1.647,.887,4.545,2.609,2.602,6.986-7.395,16.211-13.24,24.308-6.066,10.362,9.183,4.284,22.729-5.112,33.336-6.026,6.8-13.142,12.058-18.07,14.193-7.308-3.006-12.551-7.363-17.378-14.965Z" fill="#b39bc8"/>
        </g>
    </g>
    <g>
        <path d="M388.219,128.085c3.6-1.4,13.6-6.6,27.6-23.4,9.1-11,19.1-17.4,29.7-19.1,9.3-1.5,18.2,1.7,25,9.1,9,9.7,13.4,25.8,10.4,38.3-1,4.2-5.2,6.7-9.4,5.8-4.2-1-6.8-5.2-5.8-9.4,1.8-7.6-1.1-18.2-6.7-24.1-3.3-3.6-6.9-5-11.1-4.3-8.4,1.4-15.6,8.2-20.2,13.7-15,18-26.7,25.1-33.8,28-.9,.4-1.9,.5-2.8,.5-3.1,0-6-1.9-7.2-4.9-1.7-4.1,.3-8.6,4.3-10.2h0Z" fill="#f172a1"/>
        <path d="M158.719,331.985c.3,3.6,.6,6.6,.8,9.3,1.1,14.6,1.2,15.2,11.7,27.3,8.1,9.3,16.1,20.4,14.7,32.1-.9,7.5-5.4,14-13.7,19.9-5.4,3.9-11.2,5.7-17.1,5.7-11.8,0-23.9-7.5-34.1-21.8-8.2-11.4-18.5-29.4-21.2-49.8-2.6-19.8,3.1-67.5,6.6-76.9,2.6-7.1,10.4-19.1,32.6-20,7.9-.3,18,.3,26.9,.8,7,.4,14.3,.8,17.2,.5,6.2-.6,7.9-1.7,8-7.9l.1-3.4c.2-11.9,.6-28.2,13.3-45.6,4.7-6.4,10.1-12.9,15.3-19.2,6.2-7.4,15.5-18.6,16.2-22.1,.7-3.8,.3-5,.2-5.2,0,0-1-.5-3.7-.5-.9,0-1.9,0-3.2,.2-15.1,1.6-27.6,2.2-38.9-6.1-10.1-7.5-21.3-22.2-19.4-39,2-18.4,16.7-24,27.4-28.1,16-6.1,18.1-10,16.4-14.9-2-5.9-6.2-12.7-10.3-19.3-5.1-8.3-9.9-16.2-11-23.2-1.4-8.5,.9-19.5,9-23.5,2.8-1.4,10.4-3.6,19,5.6,2.3,2.4,4.7,5.3,7.3,8.3,5,5.9,16.8,19.6,21.1,19.6h0c2.2-.4,6.2-4.5,9.4-7.9,5.9-6.1,13.3-13.6,23.3-15,17.7-2.4,29.5,7.9,40.2,18.8,2.5,2.6,4.5,4.8,6.1,6.6q4.8,5.5,11.8,5.3c10-.2,33.6-.5,40,20.9,5.3,17.8-4.9,29.4-13.8,39.6l-1.1,1.3c-9.8,11.2-9.5,12.1-4.5,17.3,2.8,2.9,5.3,5.1,7.5,7,6.2,5.6,12.1,10.8,11.3,21.1-.4,4.3-4,7.5-8.4,7.1-4.3-.4-7.5-4.1-7.1-8.4,.2-2.2-.2-2.9-6.1-8.2-2.3-2-5.2-4.6-8.3-7.8-15.5-16-4.7-28.4,4-38.3l1.2-1.3c8.9-10.1,13.3-15.8,10.6-24.9-2.2-7.5-8.8-10.1-24.9-9.9-13.8,.1-17.5-3.5-23.7-10.7-1.5-1.7-3.2-3.6-5.5-6-10.3-10.5-17.3-15.6-27-14.3-4.7,.6-9.6,5.6-14.3,10.5-5.3,5.4-10.8,11-17.9,12.3-12.5,2.2-24.2-11.5-35.7-24.8-2.4-2.8-4.7-5.5-6.9-7.8l-1-1c-.4,1.3-.7,3.4-.3,5.8,.6,3.9,5,11.1,8.9,17.5,4.5,7.3,9.1,14.9,11.7,22.4,7.5,21.8-16.5,31-25.5,34.4-11.7,4.5-16.6,7.1-17.5,15.3-1.1,9.6,5.9,19.4,13.2,24.8,6.3,4.6,13.4,4.7,28,3.2,9.3-1,15.8,.7,20,5.3,5.9,6.4,4.1,15.6,3.5,18.6-1.4,7-8,15.2-19.5,29.1-5.1,6.1-10.3,12.3-14.7,18.4-9.8,13.5-10.1,25.4-10.3,36.8l-.1,3.6c-.4,13.7-7.8,21.5-22,22.9-4.1,.4-10.9,0-19.6-.5-8.5-.5-18.2-1.1-25.4-.8-15.2,.6-17.8,7.6-18.6,9.8-2.5,6.9-8.1,51.9-5.8,69.5,2.4,18.2,12.6,34.6,18.4,42.8,5.9,8.3,17.7,20.9,29.6,12.4,6.7-4.8,7.1-8.1,7.2-9.1,.7-5.8-6-14.2-11-20.1-13.4-15.5-14.1-19.6-15.4-36.3-.2-2.6-.4-5.6-.8-9.1-.9-9.2,1.3-16.7,6.3-22.1,8.3-8.9,21.1-8.7,25.3-8.6,4.3,0,8.1,3.5,8.1,7.8s-3.2,7.8-7.5,7.8h-.9c-2.5,0-10.1-.2-13.7,3.6-1.6,2.5-2.4,5.8-2,10.5h0Z" fill="#f172a1"/>
        <path d="M313.819,129.485l1.1,2.2c6.2,12.2,8.8,18.7,.3,32.9-1.5,2.4-4,3.8-6.7,3.8-1.3,0-2.7-.4-4-1.1-3.7-2.2-4.9-7-2.7-10.7,4.4-7.5,4.3-7.7-.9-17.9l-1.2-2.3c-8.1-16.3-4.2-22.9,7.1-31,5.5-3.9,7.5-8,8-16.8-2.8,.1-7.8,1.3-11.9,2.9-4,1.6-8.5-.3-10.1-4.3s.3-8.5,4.3-10.1c5.7-2.3,19.8-7,27.9-1.3,3.6,2.5,5.5,6.6,5.4,11.3-.3,10.9-2.3,22.3-14.6,31-1.3,.9-4.5,3.2-4.9,4.1,.2,.1,.1,1.7,2.9,7.3h0Z" fill="#f172a1"/>
        <path d="M271.619,76.685c-4.2-1-6.7-5.2-5.7-9.4,1-4.1,5.2-6.7,9.3-5.7,.6,.1,10.4,2.1,20-5.8,3.3-2.7,8.2-2.3,10.9,1,2.7,3.3,2.3,8.2-1,10.9-9.7,8.1-19.9,9.7-26.5,9.7-4,0-6.7-.6-7-.7h0Z" fill="#f172a1"/>
        <path d="M267.719,106.085c-4,.9-8,1.2-11.8,1.2-14.6,0-25.9-5.2-26.5-5.5-3.9-1.8-5.6-6.4-3.8-10.3,1.8-3.9,6.4-5.6,10.3-3.8,.2,.1,14,6.3,28.5,3.2,4.2-.9,8.3,1.8,9.2,6,.9,4.2-1.7,8.3-5.9,9.2h0Z" fill="#f172a1"/>
        <path d="M247.719,335.885c-6.7,3.4-14,4.6-21.4,4.6-10.1,0-20.3-2.3-28.6-4.1-4.5-1-9.1-2-11.3-2-4.3,0-7.8-3.5-7.8-7.8s3.5-7.8,7.8-7.8c3.9,0,8.6,1.1,14.7,2.4,12.1,2.7,28.7,6.4,39.5,.9,13.6-7,10.9-32.5,10.9-32.8-.5-4.3,2.5-8.1,6.8-8.6,4.2-.5,8.1,2.5,8.6,6.8,.2,1.4,4.1,36.4-19.2,48.4h0Z" fill="#f172a1"/>
        <path d="M318.719,369.785c-1.3,2.9-4.1,4.6-7.1,4.6-1.1,0-2.2-.2-3.2-.7-1.8-.8-44.1-19.9-52.3-23.8-3.9-1.8-5.5-6.5-3.7-10.4s6.5-5.5,10.4-3.7c8,3.8,51.6,23.5,52,23.7,3.9,1.8,5.7,6.4,3.9,10.3h0Z" fill="#f172a1"/>
        <path d="M389.119,254.685c15.6,7.5,26.8,1.2,26.9,1.2,3.7-2.2,8.5-1,10.7,2.7s1,8.5-2.7,10.7c-.5,.3-8.1,4.7-19.7,4.7-6.3,0-13.7-1.3-21.9-5.2-20.8-10-37.8-15.6-58.6-12.9-4.2,.5-8.2-2.5-8.7-6.7-.5-4.3,2.5-8.2,6.7-8.7,27.2-3.6,49,5.4,67.3,14.2h0Z" fill="#f172a1"/>
        <path d="M385.319,227.685c1.3-4.1,5.6-6.4,9.7-5.2,10,3,19,7.5,27.6,11.7,11.2,5.5,21.9,10.8,32.1,11.3,15.8,.9,22.1-4.1,22.2-4.1,3.3-2.6,8.1-2.3,10.9,.9,2.7,3.2,2.6,7.9-.5,10.7-1,.9-9.5,8.2-28.9,8.2-1.5,0-3,0-4.5-.1-13.4-.7-25.4-6.7-38.1-12.9-8.1-4-16.5-8.1-25.3-10.8-4.2-1.3-6.5-5.6-5.2-9.7h0Z" fill="#f172a1"/>
        <path d="M363.319,221.785c-1.4,4.1-5.7,6.3-9.8,4.9-.1,0-14.2-4.6-29.1-1.4-14.6,3.1-26.2,14.9-26.3,15-1.5,1.6-3.6,2.4-5.6,2.4-1.9,0-3.9-.7-5.4-2.2-3.1-3-3.2-7.9-.2-11,.6-.6,15-15.4,34.4-19.5,19.1-4,36.4,1.7,37.2,1.9,4,1.5,6.2,5.9,4.8,9.9h0Z" fill="#f172a1"/>
        <path d="M501.119,333.085c-4.9,14.8-2.4,21.5-1.1,23.6,.9,1.6,2.2,2.6,3.8,2.8,5.3,1,13.8-2.1,22.1-8.1,5.6-4,18.8-10.1,28.4-4.1,4.4,2.7,9.2,8.6,7.2,21.4-4.7,29.3-37.1,49.7-46.9,55.3-10.4,6.2-34.9,4.2-51-13.4-16.2-17.8-12.7-44.8-10.9-59.3,1.3-10.4-.9-11.7-8.1-14.3l-3.2-1.2c-2-.7-4.7-1.8-6.3-2.1-.3,.8-.6,2.3-.8,4.8-.1,2.2-.2,4.4-.3,6.5-.7,14.1-1.3,27.4-16.1,38.5-4.7,3.5-9.4,5.9-13.5,8-10,5.1-12.2,6.8-11.9,13.1,.3,6.3,4.3,11.1,9,16.7,5,6,10.7,12.7,11,22,.3,11.8-5.8,17.7-11.7,23.5-3.4,3.2-7.2,6.9-10.9,12.5-10.6,15.7-14.7,26-18.8,40.6-3.1,11.1-11.5,20-21.8,23.2-2.6,.8-5.2,1.2-7.8,1.2-5.2,0-10.1-1.7-14-5-10.9-9-18.6-17.4-11.7-37.3,5.8-16.6,17.5-34.8,25.9-44.8,5.5-6.5,5.4-6.6,.6-13.6-.7-1-1.5-2.1-2.3-3.3-7.6-10.6-21.8-30.4-17.8-55.3,4.1-25.9,12.4-38.4,12.7-38.9,2.4-3.6,7.2-4.5,10.8-2.1,3.6,2.4,4.5,7.2,2.1,10.8,0,.1-6.8,10.6-10.3,32.7-3,18.6,8.4,34.4,15.1,43.9,1,1.3,1.8,2.5,2.5,3.6,7.6,11.2,9.5,19.3-1.6,32.4-7.5,8.9-18,25.1-23.1,39.9-3.8,10.8-1.7,13.1,6.9,20.2,2.4,2,5.6,1.4,7.3,.9,4-1.2,9.4-5.3,11.5-12.6,4.5-15.9,9.1-27.8,20.9-45.1,4.7-6.9,9.3-11.4,13-14.9,5.5-5.3,7.1-7.1,7-11.8-.1-3.8-3.4-7.8-7.3-12.4-5.4-6.5-12.2-14.5-12.7-26.1-.7-16.9,11-22.9,20.4-27.6,3.8-1.9,7.7-3.9,11.3-6.6,8.6-6.4,9.2-12.5,9.9-26.7,.1-2.1,.2-4.4,.4-6.7,.4-5.5,1.5-13.3,7.7-17.3,6.5-4.2,13.9-1.5,20.4,1l2.9,1.1c15.1,5.4,20.4,14.4,18.3,31-1.6,12-4.4,34.4,6.9,46.8,11.4,12.5,28,12.7,31.6,10.5,17.2-9.8,36.5-26.5,39.4-44.4,.7-4.5-.1-5.8-.1-5.8-1.1-.6-6.7,.4-11.1,3.6-7,5.1-20.8,13.3-34,10.8-6-1.1-11.1-4.7-14.4-10.2-3.6-6.1-6.6-17.3-.3-36.4,6.4-19.6-.2-25.3-11.9-32.5-7.9-4.8-24.2,2.1-35,6.6-3.1,1.3-5.9,2.5-8.2,3.3-17.2,6.2-30.7-14-32.2-16.3-2.3-3.6-1.3-8.4,2.4-10.7,3.6-2.3,8.4-1.3,10.7,2.3,2.8,4.3,9.6,11.6,13.8,10.1,2.1-.8,4.6-1.8,7.4-3,14.5-6.2,34.5-14.6,49.2-5.6,15.3,9,28,21.5,18.6,50.3h0Z" fill="#f172a1"/>
        <path d="M524.119,237.885c-3.8,.7-8,1-12.4,1-28.2,0-65.1-12.9-78.6-18.6-3.9-1.7-5.8-6.3-4.1-10.2s6.2-5.8,10.2-4.1c16.9,7.2,59.3,20.8,82.1,16.6,19.3-3.5,21.3-15.4,21.4-16.8,.5-4.2,4.3-7.3,8.5-6.9,4.2,.4,7.3,4.1,7,8.3-.1,1.1-2.5,25-34.1,30.7h0Z" fill="#f172a1"/>
        <path d="M572.319,176.385c-14.7,14.5-22.9,18.8-40,24.1-17.5,5.5-40.1,3.3-53.5-1.6-4-1.5-6.1-6-4.6-10s6-6.1,10-4.6c9.1,3.4,28.5,6,43.4,1.4,15.2-4.8,21.1-7.8,33.8-20.4,6.6-6.5,8.2-11.7,7.5-14.2-.6-2.1-3.6-4-8.3-5.2-9.9-2.5-19.8,5-29.4,12.3-4.5,3.4-8.8,6.7-13.2,9-11,5.7-18.1,2.1-25-1.4-4.8-2.4-10.2-5.1-19.3-6.6-12.2-1.9-27.8,3.7-41.6,8.7-10.4,3.8-20.3,7.4-29,8-6.7,.5-12.9,.1-19.5-.2-13-.8-27.9-1.7-52.6,4.3-33.8,8.2-55.8,36.6-61.7,45.1-1.5,2.2-3.9,3.3-6.4,3.3-1.5,0-3.1-.4-4.4-1.4-3.5-2.5-4.4-7.3-1.9-10.8,6.7-9.6,31.7-41.9,70.8-51.4,27-6.6,43.7-5.5,57.2-4.7,6.3,.4,11.7,.7,17.3,.3,6.6-.5,15.5-3.7,24.9-7.1,15.6-5.6,33.2-12,49.3-9.5,11.5,1.8,18.7,5.4,23.9,8,6.2,3.1,7.1,3.4,10.8,1.5,3.2-1.7,7-4.5,11-7.6,11.4-8.6,25.5-19.3,42.6-15,13.3,3.4,17.9,10.7,19.4,16.2,2.6,9.3-1.5,19.7-11.5,29.5h0Z" fill="#f172a1"/>
    </g>
</svg>